<svg xmlns="http://www.w3.org/2000/svg" viewBox="0 0 800 400" class="project-card">
  <!-- Background Gradient -->
  <defs>
    <linearGradient id="backgroundGradient" x1="0%" y1="0%" x2="100%" y2="100%">
      <stop offset="0%" stop-color="#3245ff" />
      <stop offset="100%" stop-color="#bc52ee" />
    </linearGradient>
  </defs>
  <rect width="800" height="400" fill="url(#backgroundGradient)" rx="20" />

  <!-- Database Icon -->
  <g transform="translate(50, 100)">
    <rect x="0" y="0" width="120" height="80" fill="#4FD1C5" rx="10" />
    <rect x="10" y="10" width="100" height="60" fill="#1a365d" rx="5" />
    <circle cx="60" cy="20" r="5" fill="#4FD1C5" />
    <circle cx="60" cy="40" r="5" fill="#4FD1C5" />
    <circle cx="60" cy="60" r="5" fill="#4FD1C5" />
  </g>

  <!-- Title -->
  <text x="200" y="150" font-family="'Lato', sans-serif" font-size="40" fill="#ffffff" font-weight="600">
    Static Database: DevFlowDB
  </text>

  <!-- Description -->
  <text x="200" y="200" font-family="'Lato', sans-serif" font-size="24" fill="#f5f5f5" width="550">
    Lightweight WASM-powered SQL database.
  </text>

  <!-- Tags -->
  <g transform="translate(200, 280)">
    <rect x="0" y="0" width="120" height="40" fill="#4FD1C5" rx="10" />
    <text x="60" y="25" font-family="'Lato', sans-serif" font-size="18" fill="#1a365d" text-anchor="middle">sql.js (WASM)</text>
  </g>
  <g transform="translate(340, 280)">
    <rect x="0" y="0" width="100" height="40" fill="#4FD1C5" rx="10" />
    <text x="50" y="25" font-family="'Lato', sans-serif" font-size="18" fill="#1a365d" text-anchor="middle">TypeScript</text>
  </g>
  <g transform="translate(460, 280)">
    <rect x="0" y="0" width="80" height="40" fill="#4FD1C5" rx="10" />
    <text x="40" y="25" font-family="'Lato', sans-serif" font-size="18" fill="#1a365d" text-anchor="middle">HTTPvfs</text>
  </g>
  <g transform="translate(560, 280)">
    <rect x="0" y="0" width="120" height="40" fill="#4FD1C5" rx="10" />
    <text x="60" y="25" font-family="'Lato', sans-serif" font-size="18" fill="#1a365d" text-anchor="middle">IndexedDB</text>
  </g>

  <!-- Live URL -->
  <text x="200" y="350" font-family="'Lato', sans-serif" font-size="20" fill="#ffffff">
    Live: <tspan fill="#4FD1C5">DevFlowDB.vercel.app</tspan>
  </text>

  <!-- GitHub URL -->
  <text x="200" y="380" font-family="'Lato', sans-serif" font-size="20" fill="#ffffff">
    GitHub: <tspan fill="#4FD1C5">github.com/johnwesleyquintero/DevFlowDB</tspan>
  </text>
</svg>